<svg version="1.0" id="Capa_1" xmlns="http://www.w3.org/2000/svg" x="0" y="0" width="1200" height="1199.999" xml:space="preserve"><path d="M453.583 1120.583V353.109c0-2.595-5.139-15.358-5.139-8.892v767.474c0 2.583 5.139 15.358 5.139 8.892z"/><path d="M456.055 1129.371c96.061-.007 192.129 0 288.19-.007 3.46 0 1.112-13.569-3.623-13.569h-7.649c-3.448 0-1.112 13.569 3.636 13.569 2.543.007 5.099 0 7.637 0 3.46 0 1.112-13.569-3.623-13.569H452.421c-3.443.001-1.114 13.57 3.634 13.576z"/><path d="M744.245 1154.479V347.248c0-3.987-6.017-14.792-6.017-5.73 0 1.424 0 2.849.006 4.274-.006 3.987 6.011 14.792 6.011 5.737v-4.28c0-3.987-6.017-14.792-6.017-5.73 0 269.066 0 538.158.006 807.237-.006 3.973 6.011 14.784 6.011 5.723zM466.378 348.295c-37.909-.377-76.04-6.55-113.917-3.193-4.95.436-1.918 14.056 3.63 13.562 37.141-3.298 74.621 2.875 111.809 3.246 6.082.071 3.356-13.562-1.522-13.615z"/><path d="M735.587 361.903h125.748c5.971 0 3.168-13.595-1.581-13.601-41.916 0-83.839.007-125.755.007-5.97 0-3.167 13.594 1.588 13.594zM354.432 359.36c-2.023-20.301 28.53-45.012 41.214-57.872 17.303-17.543 34.527-34.208 49.995-53.423 52.155-64.754 100.92-132.201 149.816-199.427 2.14-2.94-.794-15.885-5.094-12.646-4.312 3.22-8.618 6.446-12.918 9.666-3.344 2.517 1.171 15.605 5.106 12.658 4.299-3.226 8.606-6.453 12.905-9.679a6561.146 6561.146 0 0 1-5.094-12.646C537.239 109 485.5 184.695 426.275 252.942c-23.677 27.287-82.74 62.881-78.609 104.368.626 6.31 7.703 11.515 6.766 2.05z"/><path d="M590.793 57.699c52.285 37.168 83.488 94.286 121.735 144.313 43.275 56.571 89.51 111.257 142.68 158.799 6.44 5.763 8.957-7.182 4.241-11.409-54.952-49.156-101.929-106.111-146.615-164.556-37.077-48.473-67.115-102.534-117.813-138.569-7.097-5.042-9.49 7.689-4.228 11.422zM447.176 1113.493a64.995 64.995 0 0 1-.052 3.149c.026-.592.175-.976.676-1.256-1.353.748-3.59.41-5.054.41-4.202.013-1.633 13.575 3.629 13.569 2.179 0 5.133.364 6.7-1.541 1.997-2.453 1.776-6.082 1.769-9.048 0-3.057-1.014-7.097-3.695-8.951-2.639-1.822-3.973 1.535-3.973 3.668zM463.483 1135.037c-.436 0-2.648-.124-2.094.026-.924-.423-.716-.176.637.729.865.949.787 2.413.709.208-.104-3.096-2.289-7.07-5.692-7.409-3.564-.344-4.944 3.519-4.846 6.368.254 7.552 4.15 13.854 12.151 13.868 7.449.019 5.659-13.764-.865-13.79z"/><path d="M442.746 1125.006V357.532c0-6.101-9.269-14.024-9.269-4.852v767.474c0 6.108 9.269 14.031 9.269 4.852z"/><path d="M441.965 1135.869h288.203c6.674 0 4.274-13.679-1.256-13.679h-7.656c-6.673 0-4.274 13.679 1.262 13.679h7.649c6.674 0 4.274-13.679-1.256-13.679H440.709c-6.679 0-4.279 13.692 1.256 13.679z"/><path d="M731.925 1160.769c.006-269.073 0-538.152 0-807.225.006-4.722-7.162-14.583-7.162-5.431v4.287c0 4.709 7.162 14.564 7.162 5.418v-4.274c.006-4.722-7.162-14.583-7.162-5.431v807.237c0 4.71 7.162 14.565 7.162 5.419zM452.419 354.774c-37.545-.364-75.357-6.557-112.869-3.22-2.849.247-.267 13.907 3.636 13.569 37.506-3.337 75.324 2.843 112.869 3.213 2.498.033.501-13.522-3.636-13.562z"/><path d="M723.71 368.343c41.916 0 83.839-.007 125.761-.007 3.213.007.943-13.562-3.629-13.562H720.074c-3.22 0-.95 13.562 3.636 13.569zM340.825 367.732c-1.932-19.423 23.937-41.428 35.912-53.898 15.721-16.372 33.603-31.105 47.555-49.071 53.69-69.177 106.481-138.758 158.005-209.594 1.672-2.309-2.361-14.499-4.118-13.191-4.299 3.226-8.592 6.459-12.885 9.679-3.278 2.446 2.322 14.538 3.629 13.562 4.299-3.22 8.592-6.44 12.892-9.672l-4.117-13.178c-53.091 73.015-104.823 148.723-164.061 216.957-22.994 26.481-82.154 62.406-78.173 102.501.345 3.446 6.252 14.816 5.361 5.905z"/><path d="M579.976 64.717c52.375 37.233 83.637 94.487 121.95 144.599 43.197 56.493 89.394 111.048 142.472 158.532 4.202 3.747 3.129-9.829.059-12.574-55.037-49.226-102.066-106.305-146.818-164.834-36.999-48.395-67.005-102.312-117.611-138.29-4.853-3.447-3.455 10.161-.052 12.567zM435.396 1118.17c0 1.385.183 2.979-.384 3.655-.709.871-4.241.436-5.165.436-2.101-.013-.163 13.556 3.636 13.556 2.199 0 4.339.26 6.108-1.19 1.736-1.425 1.236-5.712 1.236-7.63 0-3.252-.859-6.811-2.562-9.588-1.327-2.147-2.869-1.86-2.869.761zM449.192 1141.6c-.748-.006-1.477 0-2.218-.13a4.418 4.418 0 0 1-1.041-.338c-.442-.169 1.737 7.747 1.607 3.675-.085-2.947-1.145-6.934-3.344-9.048-2.283-2.211-2.674 1.912-2.622 3.304.15 4.716 1.236 10.336 4.534 13.926 1.841 2.004 4.156 2.166 6.719 2.173 2.681.013.594-13.556-3.635-13.562zM509.321 1126.275c-18.291-9.731-35.749-21.785-51.744-34.364-.715-.573-.534 10.017 2.309 12.255 11.962 9.412 24.75 18.493 38.078 26.559 3.727-1.653 7.513-3.117 11.357-4.45zM455.886 1074.095c27.398 12.977 52.265 30.344 77.997 46.073 6.063-.95 12.197-1.535 18.37-1.685-32.114-17.965-61.814-40.355-95.268-56.213-6.193-2.928-5.692 9.638-1.099 11.825zM453.447 1032.796c76.247 30.104 140.904 87.332 223.982 99.125 6.303.885 4.599-11.838-.976-12.625-82.167-11.656-146.192-68.624-221.621-98.409-6.654-2.629-6.485 9.886-1.385 11.909zM462.989 1002.842c44.518 19.326 89.602 37.324 133.886 57.189 36.849 16.529 75.812 48.532 117.481 48.87 5.73.045 3.298-12.489-1.34-12.528-42.456-.325-85.634-34.683-123.706-51.764-41.532-18.635-83.891-35.359-125.65-53.488-5.966-2.596-4.873 9.906-.671 11.721zM490.192 959.3c74.44 41.506 150.395 96.191 237.752 103.704 6.427.553 4.638-12.131-.956-12.606-86.402-7.441-161.765-61.938-235.392-103.015-6.12-3.408-6.153 9.269-1.404 11.917zM439.045 875.734c33.441 35.366 79.441 50.932 123.589 68.553 55.868 22.311 105.395 56.935 163.221 75.038 4.918 1.535 3.252-11.078-1.353-12.522-54.047-16.912-101.87-46.964-152.879-70.804-45.578-21.303-94.13-32.536-129.944-70.413-5.145-5.443-5.789 6.818-2.634 10.148zM455.782 839.841c95.944 34.501 174.143 110.014 276.787 126.692 6.161 1.008 4.443-11.721-1.014-12.606-101.74-16.529-179.334-91.755-274.465-125.964-6.701-2.406-6.362 10.057-1.308 11.878zM457.343 796.468c47.569 25.986 100.212 40.284 148.919 63.882 43.802 21.231 82.538 53.15 131.297 62.438 4.124.781 1.945-11.676-1.808-12.398-48.011-9.139-88.613-40.088-131.31-62.432-47.966-25.109-101.271-37.857-148.905-63.889-2.831-1.553-1.757 10.447 1.807 12.399zM469.598 754.851c92.099 35.958 183.666 72.878 271.03 119.445 6.095 3.239 5.88-9.406 1.242-11.865-87.364-46.567-178.937-83.481-271.03-119.439-6.57-2.568-6.173 9.934-1.242 11.859zM734.611 776.57c-46.352-12.899-88.307-38.28-134.088-53.41-50.808-16.794-107.138-20.522-151.559-52.922-6.362-4.631-7.825 7.142-3.422 10.349 40.03 29.194 89.628 37.214 136.56 49.501 53.13 13.907 100.211 44.251 152.808 58.932a274.399 274.399 0 0 1-.299-12.45zM454.696 634.664c38.573 28.165 84.001 40.947 128.084 57.696 48.18 18.279 93.557 44.174 145.21 51.381 6.167.859 4.397-11.852-1.034-12.613-50.411-7.038-96.133-31.866-142.882-50.639-43.029-17.289-87.891-28.432-125.904-56.194-6.369-4.65-7.917 7.137-3.474 10.369zM470.332 589.281c77.347 46.704 161.29 83.475 248.863 106.111 3.857 1.008 1.932-11.416-1.828-12.392-86.922-22.467-170.462-58.821-247.263-105.187-4.52-2.738-2.816 9.633.228 11.468zM733.61 656.019c-98.533-31.945-187.238-86.213-278.817-133.542-6.199-3.194-6.043 9.438-1.301 11.884 93.439 48.297 183.861 103.86 284.807 135.512.403.124.703.053 1.067.085-2.134-4.526-4.091-9.145-5.756-13.939zM726.481 614.721c-40.284-15.097-74.342-44.453-111.536-65.665-51.686-29.525-112.2-38.723-164.113-68.137-2.179-1.242-1.288 10.446 2.016 12.32 48.993 27.768 104.576 40.121 155.54 63.668 42.261 19.533 76.469 53.214 119.718 69.925-.539-4.032-1.079-8.072-1.625-12.111zM447.293 435.406c43.549 24.119 92.152 32.615 139.61 45.91 51.647 14.466 93.681 48.837 143.727 67.095 3.688 1.333 2.101-11.012-1.737-12.418-46.847-17.074-86.499-48.349-133.931-64.116-49.56-16.477-101.428-22.318-147.76-47.985-4.826-2.666-3.122 9.739.091 11.514zM717.445 481.303c-.266-.189-.527-.416-.838-.449-46.945-6.238-91.567-38.97-135.076-56.864-47.283-19.442-94.156-39.815-139.994-62.49-1.698-.839-.859 10.739 2.237 12.274 49.396 24.425 99.996 46.047 150.941 66.992 40.973 16.847 80.326 46.378 124.714 52.454-.8-3.831-1.437-7.767-1.984-11.917zM377.472 336.887c17.367 6.57 34.332 13.861 50.529 22.974 6.329 3.558 6.875-9.12 1.743-12.001-16.184-9.113-33.161-16.398-50.522-22.968-6.96-2.641-7.351 9.887-1.75 11.995zM388.979 293.247c99.378 53.605 206.647 90.148 307.782 140.098 6.355 3.149 6.687-8.385 2.875-11.253-3.064-2.297-6.127-4.586-9.191-6.889-6.42-4.82-8.891 6.901-4.046 10.524 3.057 2.303 6.121 4.593 9.185 6.895.956-3.753 1.912-7.506 2.869-11.253-101.128-49.963-208.404-86.512-307.776-140.111-6.382-3.434-6.824 9.218-1.698 11.989zM441.433 258.947c85.12 64.416 193.475 82.622 282.504 140.104 1.581 1.021.97-10.291-2.139-12.294-89.03-57.495-197.385-75.702-282.505-140.118-1.269-.955-.833 10.058 2.14 12.308zM474.392 235.706c58.047 23.964 116.265 47.439 172.185 76.118 32.744 16.782 62.763 38.768 95.307 55.257a146.34 146.34 0 0 1 6.472-8.678c-34.937-16.476-66.718-40.225-100.953-58.334-55.478-29.343-114.248-52.2-172.165-76.118-6.174-2.542-5.224 9.934-.846 11.755zM517.146 190.07c54.757 24.626 111.725 44.212 163.086 75.786 33.512 20.613 65.015 43.575 97.766 64.728 2.673-1.886 5.399-3.708 8.189-5.406-33.558-20.684-65.6-43.711-98.67-65.541-53.527-35.333-114.229-55.765-172.361-81.913-2.653-1.191-1.437 10.797 1.99 12.346z"/><path d="M512.594 155.601c90.434 40.01 177.194 86.759 261.846 137.808 1.912 1.158 1.145-10.382-2.062-12.332-84.665-51.036-171.405-97.792-261.853-137.808-2.446-1.087-1.262 10.849 2.069 12.332zM685.006 162.886c-41.461-24.444-85.022-45.455-133.775-47.237-1.391-.052.033 12.333 3.344 12.456 49.377 1.815 93.388 23.521 135.265 48.473-1.958-4.553-3.539-9.125-4.834-13.692zM567.708 86.691c38.215 4.091 70.198 29.765 101.07 50.535 1.737 1.171 1.086-10.212-2.056-12.333-30.865-20.77-62.842-46.443-101.05-50.522-3.623-.384-1.119 11.981 2.036 12.32zM524.146 139.508c70.101 32.244 135.642 73.113 204.423 107.952 1.802.911.962-10.701-2.199-12.294-68.781-34.833-134.328-75.695-204.422-107.945-1.952-.904-.976 10.83 2.198 12.287zM753.306 352.563c-.006-.007-.013-.013-.019-.026-90.695-60.168-177.142-131.024-283.617-161.16-5.555-1.568-3.974 11.149 1.1 12.586 103.398 29.258 187.959 97.811 275.843 156.653a143.5 143.5 0 0 1 6.693-8.053zM732.243 550.995c-89.231-40.284-181.533-70.966-276.976-93.004-2.237-.514-.508 11.591 2.335 12.249 94.058 21.712 185.051 51.848 273.079 91.26.457-3.487 1.016-6.999 1.562-10.505z"/></svg>