<?xml version="1.0" encoding="utf-8"?>
<!-- Designed by Vexels.com - 2016 All Rights Reserved - https://vexels.com/terms-and-conditions/  -->

<svg version="1.0" id="Capa_1" xmlns="http://www.w3.org/2000/svg" xmlns:xlink="http://www.w3.org/1999/xlink" x="0px" y="0px"
	 width="1200px" height="1199.999px" viewBox="0 0 1200 1199.999" enable-background="new 0 0 1200 1199.999" xml:space="preserve">
<g>
	<g>
		<g>
			<path d="M453.583,1120.583c0-255.823,0-511.645,0-767.474c0-2.595-5.139-15.358-5.139-8.892c0,255.816,0,511.639,0,767.474
				C448.444,1114.274,453.583,1127.049,453.583,1120.583L453.583,1120.583z"/>
			<path d="M456.055,1129.371c96.061-0.007,192.129,0,288.19-0.007c3.46,0,1.112-13.569-3.623-13.569c-2.556,0-5.106,0-7.649,0
				c-3.448,0-1.112,13.569,3.636,13.569c2.543,0.007,5.099,0,7.637,0c3.46,0,1.112-13.569-3.623-13.569
				c-96.074,0-192.135,0-288.202,0C448.978,1115.796,451.307,1129.365,456.055,1129.371L456.055,1129.371z"/>
			<path d="M744.245,1154.479c0-269.085,0-538.158,0-807.231c0-3.987-6.017-14.792-6.017-5.73c0,1.424,0,2.849,0.006,4.274
				c-0.006,3.987,6.011,14.792,6.011,5.737c0-1.425,0-2.855,0-4.28c0-3.987-6.017-14.792-6.017-5.73
				c0,269.066,0,538.158,0.006,807.237C738.228,1152.729,744.245,1163.54,744.245,1154.479L744.245,1154.479z"/>
			<path d="M466.378,348.295c-37.909-0.377-76.04-6.55-113.917-3.193c-4.95,0.436-1.918,14.056,3.63,13.562
				c37.141-3.298,74.621,2.875,111.809,3.246C473.982,361.981,471.256,348.348,466.378,348.295L466.378,348.295z"/>
			<path d="M735.587,361.903c41.91,0,83.825,0,125.748,0c5.971,0,3.168-13.595-1.581-13.601c-41.916,0-83.839,0.007-125.755,0.007
				C728.029,348.309,730.832,361.903,735.587,361.903L735.587,361.903z"/>
			<path d="M354.432,359.36c-2.023-20.301,28.53-45.012,41.214-57.872c17.303-17.543,34.527-34.208,49.995-53.423
				c52.155-64.754,100.92-132.201,149.816-199.427c2.14-2.94-0.794-15.885-5.094-12.646c-4.312,3.22-8.618,6.446-12.918,9.666
				c-3.344,2.517,1.171,15.605,5.106,12.658c4.299-3.226,8.606-6.453,12.905-9.679c-1.705-4.222-3.402-8.431-5.094-12.646
				c-53.123,73.009-104.862,148.704-164.087,216.951c-23.677,27.287-82.74,62.881-78.609,104.368
				C348.292,363.62,355.369,368.825,354.432,359.36L354.432,359.36z"/>
			<path d="M590.793,57.699c52.285,37.168,83.488,94.286,121.735,144.313c43.275,56.571,89.51,111.257,142.68,158.799
				c6.44,5.763,8.957-7.182,4.241-11.409c-54.952-49.156-101.929-106.111-146.615-164.556
				c-37.077-48.473-67.115-102.534-117.813-138.569C587.924,41.235,585.531,53.966,590.793,57.699L590.793,57.699z"/>
			<path d="M447.176,1113.493c0.006,1.047-0.007,2.095-0.052,3.149c0.026-0.592,0.175-0.976,0.676-1.256
				c-1.353,0.748-3.59,0.41-5.054,0.41c-4.202,0.013-1.633,13.575,3.629,13.569c2.179,0,5.133,0.364,6.7-1.541
				c1.997-2.453,1.776-6.082,1.769-9.048c0-3.057-1.014-7.097-3.695-8.951C448.51,1108.003,447.176,1111.36,447.176,1113.493
				L447.176,1113.493z"/>
			<path d="M463.483,1135.037c-0.436,0-2.648-0.124-2.094,0.026c-0.924-0.423-0.716-0.176,0.637,0.729
				c0.865,0.949,0.787,2.413,0.709,0.208c-0.104-3.096-2.289-7.07-5.692-7.409c-3.564-0.344-4.944,3.519-4.846,6.368
				c0.254,7.552,4.15,13.854,12.151,13.868C471.797,1148.846,470.007,1135.063,463.483,1135.037L463.483,1135.037z"/>
		</g>
		<g>
			<path d="M442.746,1125.006c0-255.816,0-511.645,0-767.474c0-6.101-9.269-14.024-9.269-4.852c0,255.822,0,511.651,0,767.474
				C433.477,1126.262,442.746,1134.185,442.746,1125.006L442.746,1125.006z"/>
			<path d="M441.965,1135.869c96.075,0,192.129,0,288.203,0c6.674,0,4.274-13.679-1.256-13.679c-2.55,0-5.106,0-7.656,0
				c-6.673,0-4.274,13.679,1.262,13.679c2.543,0,5.099,0,7.649,0c6.674,0,4.274-13.679-1.256-13.679c-96.074,0-192.129,0-288.202,0
				C434.03,1122.19,436.43,1135.882,441.965,1135.869L441.965,1135.869z"/>
			<path d="M731.925,1160.769c0.006-269.073,0-538.152,0-807.225c0.006-4.722-7.162-14.583-7.162-5.431c0,1.431,0,2.855,0,4.287
				c0,4.709,7.162,14.564,7.162,5.418c0-1.424,0-2.849,0-4.274c0.006-4.722-7.162-14.583-7.162-5.431c0,269.079,0,538.165,0,807.237
				C724.763,1160.06,731.925,1169.915,731.925,1160.769L731.925,1160.769z"/>
			<path d="M452.419,354.774c-37.545-0.364-75.357-6.557-112.869-3.22c-2.849,0.247-0.267,13.907,3.636,13.569
				c37.506-3.337,75.324,2.843,112.869,3.213C458.553,368.369,456.556,354.814,452.419,354.774L452.419,354.774z"/>
			<path d="M723.71,368.343c41.916,0,83.839-0.007,125.761-0.007c3.213,0.007,0.943-13.562-3.629-13.562
				c-41.929,0-83.852,0-125.768,0C716.854,354.774,719.124,368.336,723.71,368.343L723.71,368.343z"/>
			<path d="M340.825,367.732c-1.932-19.423,23.937-41.428,35.912-53.898c15.721-16.372,33.603-31.105,47.555-49.071
				c53.69-69.177,106.481-138.758,158.005-209.594c1.672-2.309-2.361-14.499-4.118-13.191c-4.299,3.226-8.592,6.459-12.885,9.679
				c-3.278,2.446,2.322,14.538,3.629,13.562c4.299-3.22,8.592-6.44,12.892-9.672c-1.372-4.391-2.745-8.788-4.117-13.178
				c-53.091,73.015-104.823,148.723-164.061,216.957c-22.994,26.481-82.154,62.406-78.173,102.501
				C335.809,365.273,341.716,376.643,340.825,367.732L340.825,367.732z"/>
			<path d="M579.976,64.717c52.375,37.233,83.637,94.487,121.95,144.599c43.197,56.493,89.394,111.048,142.472,158.532
				c4.202,3.747,3.129-9.829,0.059-12.574C789.42,306.048,742.391,248.969,697.639,190.44
				C660.64,142.045,630.634,88.128,580.028,52.15C575.175,48.703,576.573,62.311,579.976,64.717L579.976,64.717z"/>
			<path d="M435.396,1118.17c0,1.385,0.183,2.979-0.384,3.655c-0.709,0.871-4.241,0.436-5.165,0.436
				c-2.101-0.013-0.163,13.556,3.636,13.556c2.199,0,4.339,0.26,6.108-1.19c1.736-1.425,1.236-5.712,1.236-7.63
				c0-3.252-0.859-6.811-2.562-9.588C436.938,1115.262,435.396,1115.549,435.396,1118.17L435.396,1118.17z"/>
			<path d="M449.192,1141.6c-0.748-0.006-1.477,0-2.218-0.13c-0.364-0.071-0.709-0.182-1.041-0.338
				c-0.442-0.169,1.737,7.747,1.607,3.675c-0.085-2.947-1.145-6.934-3.344-9.048c-2.283-2.211-2.674,1.912-2.622,3.304
				c0.15,4.716,1.236,10.336,4.534,13.926c1.841,2.004,4.156,2.166,6.719,2.173C455.508,1155.175,453.421,1141.606,449.192,1141.6
				L449.192,1141.6z"/>
		</g>
	</g>
	<path d="M509.321,1126.275c-18.291-9.731-35.749-21.785-51.744-34.364c-0.715-0.573-0.534,10.017,2.309,12.255
		c11.962,9.412,24.75,18.493,38.078,26.559C501.691,1129.072,505.477,1127.608,509.321,1126.275z"/>
	<path d="M455.886,1074.095c27.398,12.977,52.265,30.344,77.997,46.073c6.063-0.95,12.197-1.535,18.37-1.685
		c-32.114-17.965-61.814-40.355-95.268-56.213C450.792,1059.342,451.293,1071.908,455.886,1074.095z"/>
	<path d="M453.447,1032.796c76.247,30.104,140.904,87.332,223.982,99.125c6.303,0.885,4.599-11.838-0.976-12.625
		c-82.167-11.656-146.192-68.624-221.621-98.409C448.178,1018.258,448.347,1030.773,453.447,1032.796L453.447,1032.796z"/>
	<path d="M462.989,1002.842c44.518,19.326,89.602,37.324,133.886,57.189c36.849,16.529,75.812,48.532,117.481,48.87
		c5.73,0.045,3.298-12.489-1.34-12.528c-42.456-0.325-85.634-34.683-123.706-51.764c-41.532-18.635-83.891-35.359-125.65-53.488
		C457.694,988.525,458.787,1001.027,462.989,1002.842L462.989,1002.842z"/>
	<path d="M490.192,959.3c74.44,41.506,150.395,96.191,237.752,103.704c6.427,0.553,4.638-12.131-0.956-12.606
		c-86.402-7.441-161.765-61.938-235.392-103.015C485.476,943.975,485.443,956.652,490.192,959.3L490.192,959.3z"/>
	<path d="M439.045,875.734c33.441,35.366,79.441,50.932,123.589,68.553c55.868,22.311,105.395,56.935,163.221,75.038
		c4.918,1.535,3.252-11.078-1.353-12.522c-54.047-16.912-101.87-46.964-152.879-70.804c-45.578-21.303-94.13-32.536-129.944-70.413
		C436.534,860.143,435.89,872.404,439.045,875.734L439.045,875.734z"/>
	<path d="M455.782,839.841c95.944,34.501,174.143,110.014,276.787,126.692c6.161,1.008,4.443-11.721-1.014-12.606
		c-101.74-16.529-179.334-91.755-274.465-125.964C450.389,825.557,450.728,838.02,455.782,839.841L455.782,839.841z"/>
	<path d="M457.343,796.468c47.569,25.986,100.212,40.284,148.919,63.882c43.802,21.231,82.538,53.15,131.297,62.438
		c4.124,0.781,1.945-11.676-1.808-12.398c-48.011-9.139-88.613-40.088-131.31-62.432c-47.966-25.109-101.271-37.857-148.905-63.889
		C452.705,782.516,453.779,794.516,457.343,796.468L457.343,796.468z"/>
	<path d="M469.598,754.851c92.099,35.958,183.666,72.878,271.03,119.445c6.095,3.239,5.88-9.406,1.242-11.865
		c-87.364-46.567-178.937-83.481-271.03-119.439C464.27,740.424,464.667,752.926,469.598,754.851L469.598,754.851z"/>
	<path d="M734.611,776.57c-46.352-12.899-88.307-38.28-134.088-53.41c-50.808-16.794-107.138-20.522-151.559-52.922
		c-6.362-4.631-7.825,7.142-3.422,10.349c40.03,29.194,89.628,37.214,136.56,49.501c53.13,13.907,100.211,44.251,152.808,58.932
		C734.715,784.883,734.618,780.727,734.611,776.57z"/>
	<path d="M454.696,634.664c38.573,28.165,84.001,40.947,128.084,57.696c48.18,18.279,93.557,44.174,145.21,51.381
		c6.167,0.859,4.397-11.852-1.034-12.613c-50.411-7.038-96.133-31.866-142.882-50.639c-43.029-17.289-87.891-28.432-125.904-56.194
		C451.801,619.645,450.253,631.432,454.696,634.664L454.696,634.664z"/>
	<path d="M470.332,589.281c77.347,46.704,161.29,83.475,248.863,106.111c3.857,1.008,1.932-11.416-1.828-12.392
		c-86.922-22.467-170.462-58.821-247.263-105.187C465.584,575.075,467.288,587.446,470.332,589.281L470.332,589.281z"/>
	<path d="M733.61,656.019c-98.533-31.945-187.238-86.213-278.817-133.542c-6.199-3.194-6.043,9.438-1.301,11.884
		c93.439,48.297,183.861,103.86,284.807,135.512c0.403,0.124,0.703,0.053,1.067,0.085
		C737.232,665.432,735.275,660.813,733.61,656.019z"/>
	<path d="M726.481,614.721c-40.284-15.097-74.342-44.453-111.536-65.665c-51.686-29.525-112.2-38.723-164.113-68.137
		c-2.179-1.242-1.288,10.446,2.016,12.32c48.993,27.768,104.576,40.121,155.54,63.668c42.261,19.533,76.469,53.214,119.718,69.925
		C727.567,622.8,727.027,618.76,726.481,614.721z"/>
	<path d="M447.293,435.406c43.549,24.119,92.152,32.615,139.61,45.91c51.647,14.466,93.681,48.837,143.727,67.095
		c3.688,1.333,2.101-11.012-1.737-12.418c-46.847-17.074-86.499-48.349-133.931-64.116c-49.56-16.477-101.428-22.318-147.76-47.985
		C442.376,421.226,444.08,433.631,447.293,435.406L447.293,435.406z"/>
	<path d="M717.445,481.303c-0.266-0.189-0.527-0.416-0.838-0.449c-46.945-6.238-91.567-38.97-135.076-56.864
		c-47.283-19.442-94.156-39.815-139.994-62.49c-1.698-0.839-0.859,10.739,2.237,12.274c49.396,24.425,99.996,46.047,150.941,66.992
		c40.973,16.847,80.326,46.378,124.714,52.454C718.629,489.389,717.992,485.453,717.445,481.303z"/>
	<path d="M377.472,336.887c17.367,6.57,34.332,13.861,50.529,22.974c6.329,3.558,6.875-9.12,1.743-12.001
		c-16.184-9.113-33.161-16.398-50.522-22.968C372.262,322.251,371.871,334.779,377.472,336.887L377.472,336.887z"/>
	<path d="M388.979,293.247c99.378,53.605,206.647,90.148,307.782,140.098c6.355,3.149,6.687-8.385,2.875-11.253
		c-3.064-2.297-6.127-4.586-9.191-6.889c-6.42-4.82-8.891,6.901-4.046,10.524c3.057,2.303,6.121,4.593,9.185,6.895
		c0.956-3.753,1.912-7.506,2.869-11.253c-101.128-49.963-208.404-86.512-307.776-140.111
		C384.295,277.824,383.853,290.476,388.979,293.247L388.979,293.247z"/>
	<path d="M441.433,258.947c85.12,64.416,193.475,82.622,282.504,140.104c1.581,1.021,0.97-10.291-2.139-12.294
		c-89.03-57.495-197.385-75.702-282.505-140.118C438.024,245.684,438.46,256.697,441.433,258.947L441.433,258.947z"/>
	<path d="M474.392,235.706c58.047,23.964,116.265,47.439,172.185,76.118c32.744,16.782,62.763,38.768,95.307,55.257
		c2.042-2.973,4.208-5.854,6.472-8.678c-34.937-16.476-66.718-40.225-100.953-58.334c-55.478-29.343-114.248-52.2-172.165-76.118
		C469.064,221.409,470.014,233.885,474.392,235.706z"/>
	<path d="M517.146,190.07c54.757,24.626,111.725,44.212,163.086,75.786c33.512,20.613,65.015,43.575,97.766,64.728
		c2.673-1.886,5.399-3.708,8.189-5.406c-33.558-20.684-65.6-43.711-98.67-65.541c-53.527-35.333-114.229-55.765-172.361-81.913
		C512.503,176.533,513.719,188.521,517.146,190.07z"/>
	<path d="M512.594,155.601c90.434,40.01,177.194,86.759,261.846,137.808c1.912,1.158,1.145-10.382-2.062-12.332
		c-84.665-51.036-171.405-97.792-261.853-137.808C508.079,142.182,509.263,154.118,512.594,155.601L512.594,155.601z"/>
	<path d="M685.006,162.886c-41.461-24.444-85.022-45.455-133.775-47.237c-1.391-0.052,0.033,12.333,3.344,12.456
		c49.377,1.815,93.388,23.521,135.265,48.473C687.882,172.025,686.301,167.453,685.006,162.886z"/>
	<path d="M567.708,86.691c38.215,4.091,70.198,29.765,101.07,50.535c1.737,1.171,1.086-10.212-2.056-12.333
		c-30.865-20.77-62.842-46.443-101.05-50.522C562.049,73.987,564.553,86.352,567.708,86.691L567.708,86.691z"/>
	<path d="M524.146,139.508c70.101,32.244,135.642,73.113,204.423,107.952c1.802,0.911,0.962-10.701-2.199-12.294
		c-68.781-34.833-134.328-75.695-204.422-107.945C519.996,126.317,520.972,138.051,524.146,139.508L524.146,139.508z"/>
	<path d="M753.306,352.563c-0.006-0.007-0.013-0.013-0.019-0.026c-90.695-60.168-177.142-131.024-283.617-161.16
		c-5.555-1.568-3.974,11.149,1.1,12.586c103.398,29.258,187.959,97.811,275.843,156.653
		C748.752,357.851,750.977,355.158,753.306,352.563z"/>
	<path d="M732.243,550.995c-89.231-40.284-181.533-70.966-276.976-93.004c-2.237-0.514-0.508,11.591,2.335,12.249
		c94.058,21.712,185.051,51.848,273.079,91.26C731.138,558.013,731.697,554.501,732.243,550.995z"/>
</g>
</svg>
